PathFileType	4	(X/Y/Z)	/home/abdul/Desktop/myosuite/custom_workspace/IK/output/S1_12_2.trc
DataRate	CameraRate	NumFrames	NumMarkers	Units	OrigDataRate	OrigDataStartFrame	OrigNumFrames
200.0	200.0	22	3	mm	200.0	198	1578
Frame#	Time	V_Shoulder			V_Elbow			V_Wrist		
		X1	Y1	Z1	X2	Y2	Z2	X3	Y3	Z3

198	0.985	-189.36147183729713	459.41646272341495	359.1704777221849	-283.9114486526387	335.09936672828195	19.432687358046394	-126.37079733243422	116.39616955648026	60.547782922216946
199	0.99	-189.35190947326325	459.4211978998032	359.33383817105806	-283.8008984676622	335.18854053915294	19.51009041098503	-126.37457338595468	116.41544564962581	60.60056981560943
200	0.995	-189.34168033949643	459.4261510435401	359.4949282450657	-283.6949826704449	335.27405563856587	19.589389395674292	-126.38050897471138	116.43192245698998	60.65304499444511
201	1.0	-189.33077094393647	459.431433992367	359.65368414206023	-283.59382911657474	335.35599263903464	19.670565528234526	-126.38872171672398	116.4456576326733	60.70516110162236
202	1.005	-189.31916861853617	459.43716134296415	359.81005130207797	-283.497558292987	335.43444560538217	19.753599158953648	-126.39933206512362	116.4567167494564	60.75687827072809
203	1.01	-189.30686152955107	459.4434503650434	359.96398434852864	-283.40628328674853	335.5095215740814	19.83846991913755	-126.41246322018856	116.46517297380692	60.80816481011851
204	1.015	-189.29383868770802	459.45042091877446	360.11544700414623	-283.3201097745609	335.5813400258103	19.925156879679996	-126.42824102993967	116.47110672197108	60.858997902533986
205	1.02	-189.28008995802918	459.45819537568605	360.26441198277126	-283.2391360323558	335.65003231342735	20.013638721497063	-126.44679387896943	116.4746052991756	60.90936431840915
206	1.025	-189.2656060690772	459.46689854314803	360.41086085810343	-283.16345296428904	335.7157410477619	20.103893917918803	-126.46825256522175	116.47576252403854	60.95926114088311
207	1.03	-189.25037862138325	459.4766575924991	360.55478391062746	-283.09314415037665	335.778619443789	20.195900929074217	-126.49275016448769	116.47467834034876	61.00869650035891
208	1.035	-189.23440009481502	459.4876019908427	360.6961799539718	-283.0282859119658	335.8388306299195	20.289638408245313	-126.52042188243314	116.47145841841888	61.05769031630953
209	1.04	-189.21766385463903	459.49986343649516	360.835056142005	-282.9689473941812	335.89654692328406	20.385085420101515	-126.5514048940302	116.46621374824917	61.10627504387831
210	1.045	-189.20016415603334	459.51357579803	360.9714277580128	-282.91519066444516	335.9519490740204	20.48222167065757	-126.58583817032121	116.45906022675885	61.15449642267694
211	1.05	-189.18189614680705	459.5288750568184	361.1053179873326	-282.86707082613503	336.0052254816912	20.581027748726335	-126.6238622925058	116.45011824134453	61.20241422504499
212	1.055	-189.16285586808706	459.5458992529295	361.2367576748398	-282.82463614640955	336.05657138705965	20.681485378562783	-126.66561925340363	116.43951225201762	61.25010300090114
213	1.06	-189.14304025273987	459.56478843421183	361.3657850686961	-282.78792819721656	336.1061880425332	20.783577683317233	-126.71125224641067	116.42737037434864	61.29765281619009
214	1.065	-189.12244712130234	459.58568460834016	361.4924455517774	-282.7569820084768	336.1542818646546	20.887289458835216	-126.76090544213363	116.4138239654105	61.345169981810514
215	1.07	-189.10107517520555	459.60873169757116	361.61679136219345	-282.7318262324326	336.2010635720685	20.99260745725817	-126.81472375295472	116.39900721486362	61.39277776980053
216	1.075	-189.0789239870887	459.6340754959192	361.7388813043046	-282.7124833181478	336.2467473124268	21.0995206797946	-126.8728525858468	116.38305674326462	61.44061711345699
217	1.08	-189.05599398801166	459.6618636284249	361.8587804516228	-282.69896969515366	336.2915497817131	21.208020677945274	-126.93543758382899	116.36611120960652	61.488847287976824
218	1.085	-189.03228645139123	459.69224551215626	361.976559842962	-282.69129596524624	336.3356893394691	21.318101862379596	-127.00262435652043	116.34831093001277	61.53764656813184
219	1.09	-189.007803473503	459.7253723185516	362.0922961731694	-282.6894671014598	336.3793851233896	21.429761818573823	-127.07455820031936	116.32979750941351	61.587212859424156
